<svg width="41" height="40" viewBox="0 0 41 40" fill="none" xmlns="http://www.w3.org/2000/svg">
<path d="M20.392 0.786241C15.3877 0.723012 10.5472 2.56848 6.8551 5.94725C3.16303 9.32603 0.896687 13.9843 0.517068 18.9747C0.137449 23.965 1.67306 28.9125 4.81156 32.8109C7.95005 36.7093 12.4557 39.2658 17.412 39.9602V25.7172H12.48V20.5372H17.412V17.0862C17.412 11.3792 20.224 8.87424 25.022 8.87424C26.3888 8.85707 27.7551 8.93896 29.11 9.11924V13.6402H25.838C23.801 13.6402 23.09 15.5502 23.09 17.7022V20.5332H29.058L28.249 25.7132H23.089V40.0012C28.0789 39.3744 32.6396 36.8616 35.8353 32.9785C39.031 29.0953 40.6192 24.1363 40.2742 19.1191C39.9291 14.1019 37.6769 9.40702 33.9797 5.99791C30.2825 2.5888 25.4207 0.724022 20.392 0.786241Z" fill="white"/>
</svg>
