<svg width="41" height="40" viewBox="0 0 41 40" fill="none" xmlns="http://www.w3.org/2000/svg">
<path d="M12.388 0.786163C9.34586 0.780841 6.42581 1.98239 4.26842 4.12722C2.11102 6.27206 0.892446 9.18504 0.880005 12.2272V28.5662C0.894032 31.6085 2.11427 34.521 4.27301 36.6647C6.43174 38.8084 9.35268 40.0083 12.395 40.0012H28.839C31.8811 40.0065 34.8012 38.8049 36.9586 36.6601C39.116 34.5153 40.3346 31.6023 40.347 28.5602V12.2202C40.3327 9.17821 39.1125 6.26612 36.954 4.12262C34.7955 1.97913 31.875 0.779244 28.833 0.786163H12.388ZM32.125 7.32216C32.4477 7.32434 32.7625 7.42201 33.0298 7.60287C33.297 7.78373 33.5048 8.03968 33.6268 8.33844C33.7487 8.6372 33.7795 8.96539 33.7153 9.28163C33.651 9.59787 33.4945 9.88799 33.2655 10.1154C33.0366 10.3428 32.7454 10.4974 32.4288 10.5595C32.1121 10.6217 31.7841 10.5887 31.4862 10.4647C31.1883 10.3407 30.9337 10.1313 30.7546 9.86281C30.5756 9.59434 30.48 9.27887 30.48 8.95616C30.4816 8.52138 30.6558 8.10502 30.9642 7.79862C31.2727 7.49221 31.6902 7.32083 32.125 7.32216ZM20.614 10.5862C22.5494 10.5994 24.4375 11.1854 26.0402 12.2702C27.643 13.3551 28.8886 14.8902 29.6201 16.6821C30.3516 18.4739 30.5361 20.4422 30.1505 22.3388C29.7648 24.2354 28.8262 25.9753 27.453 27.3391C26.0798 28.703 24.3335 29.6297 22.4344 30.0025C20.5352 30.3752 18.5682 30.1773 16.7814 29.4336C14.9946 28.6899 13.468 27.4338 12.3941 25.8237C11.3202 24.2136 10.747 22.3216 10.747 20.3862C10.7589 17.7791 11.8044 15.2832 13.6542 13.446C15.504 11.6088 18.0069 10.5803 20.614 10.5862ZM20.614 13.8542C19.3231 13.8625 18.0636 14.2528 16.9943 14.976C15.925 15.6992 15.0938 16.7229 14.6056 17.9179C14.1173 19.1129 13.9938 20.4257 14.2508 21.6908C14.5077 22.9559 15.1335 24.1166 16.0492 25.0265C16.9649 25.9363 18.1296 26.5547 19.3963 26.8035C20.663 27.0523 21.975 26.9204 23.1668 26.4245C24.3587 25.9286 25.377 25.0909 26.0933 24.017C26.8097 22.9431 27.192 21.6811 27.192 20.3902C27.1854 18.6518 26.4888 16.9873 25.2553 15.7624C24.0218 14.5375 22.3523 13.8526 20.614 13.8582V13.8542Z" fill="white"/>
</svg>
